<?xml version="1.0" encoding="UTF-8" standalone="no"?>
<svg
   xmlns:dc="http://purl.org/dc/elements/1.1/"
   xmlns:cc="http://creativecommons.org/ns#"
   xmlns:rdf="http://www.w3.org/1999/02/22-rdf-syntax-ns#"
   xmlns:svg="http://www.w3.org/2000/svg"
   xmlns="http://www.w3.org/2000/svg"
   xmlns:xlink="http://www.w3.org/1999/xlink"
   xmlns:sodipodi="http://sodipodi.sourceforge.net/DTD/sodipodi-0.dtd"
   xmlns:inkscape="http://www.inkscape.org/namespaces/inkscape"
   width="50mm"
   height="50mm"
   viewBox="0 0 300 350"
   version="1.1"
   id="svg8"
   inkscape:version="1.0.1 (3bc2e813f5, 2020-09-07)"
   sodipodi:docname="dibujo.svg">
  <defs
     id="defs2">
    <linearGradient
       inkscape:collect="always"
       id="linearGradient51">
      <stop
         style="stop-color:#000000;stop-opacity:1;"
         offset="0"
         id="stop47" />
      <stop
         style="stop-color:#000000;stop-opacity:0;"
         offset="1"
         id="stop49" />
    </linearGradient>
    <linearGradient
       inkscape:collect="always"
       id="linearGradient43">
      <stop
         style="stop-color:#000000;stop-opacity:1;"
         offset="0"
         id="stop39" />
      <stop
         style="stop-color:#000000;stop-opacity:0;"
         offset="1"
         id="stop41" />
    </linearGradient>
    <linearGradient
       inkscape:collect="always"
       xlink:href="#linearGradient43"
       id="linearGradient45"
       x1="97.168465"
       y1="103.30262"
       x2="162.28281"
       y2="56.846016"
       gradientUnits="userSpaceOnUse" />
    <linearGradient
       inkscape:collect="always"
       xlink:href="#linearGradient51"
       id="linearGradient53"
       x1="131.20322"
       y1="187.9724"
       x2="170.71968"
       y2="186.38481"
       gradientUnits="userSpaceOnUse" />
  </defs>
  <sodipodi:namedview
     id="base"
     pagecolor="#ffffff"
     bordercolor="#666666"
     borderopacity="1.0"
     inkscape:pageopacity="0.0"
     inkscape:pageshadow="2"
     inkscape:zoom="1.979899"
     inkscape:cx="161.52082"
     inkscape:cy="79.516346"
     inkscape:document-units="mm"
     inkscape:current-layer="layer1"
     inkscape:document-rotation="0"
     showgrid="false"
     inkscape:window-width="1366"
     inkscape:window-height="705"
     inkscape:window-x="-8"
     inkscape:window-y="-8"
     inkscape:window-maximized="1" />
  <metadata
     id="metadata5">
    <rdf:RDF>
      <cc:Work
         rdf:about="">
        <dc:format>image/svg+xml</dc:format>
        <dc:type
           rdf:resource="http://purl.org/dc/dcmitype/StillImage" />
        <dc:title />
      </cc:Work>
    </rdf:RDF>
  </metadata>
  <g
     inkscape:label="Capa 1"
     inkscape:groupmode="layer"
     id="layer1">
    <path
       style="fill:#000000;fill-opacity:1;fill-rule:nonzero;stroke:none;stroke-width:0.264583"
       id="path14"
       d="m 55.323649,80.818063 c -1.120531,9.507717 -3.375488,18.875473 -6.418331,27.947597 -1.005594,2.99813 -2.159839,5.94434 -3.239757,8.91652 -3.455392,8.42108 -6.938692,16.89672 -11.502424,24.79776 -1.526437,2.64268 -4.572878,7.39155 -6.973152,9.66479 -0.889342,0.84227 -2.03526,1.3635 -3.052889,2.04524 2.271563,-1.63224 4.987168,-2.77908 6.81469,-4.89671 0.43584,-0.50503 -1.305068,-0.47539 -1.748292,-0.97396 -0.587029,-0.66032 -0.95295,-1.51239 -1.212808,-2.35684 -0.622832,-2.02401 -0.68281,-4.93673 -0.336592,-6.98146 0.199337,-1.17728 0.681077,-2.28888 1.021614,-3.43332 0.613497,-0.73145 2.681041,-2.64697 1.840489,-2.19435 -2.506477,1.34969 -5.26582,2.66213 -6.959051,4.95059 -0.543597,0.73469 1.79423,0.49441 2.549177,1.00951 1.206122,0.82293 2.235089,1.88795 3.244181,2.94325 0.845775,0.88451 7.522101,8.87307 7.983746,9.42306 1.621068,1.72814 3.107579,3.59317 4.863203,5.18443 7.483586,6.78297 16.822537,10.97175 27.03204,7.93682 2.640753,-0.785 4.985065,-2.34699 7.477599,-3.52049 4.965112,-3.57346 10.376315,-6.59723 14.89534,-10.72038 4.157649,-3.79344 7.912163,-12.62354 9.603018,-17.61564 2.38947,-7.05473 3.84178,-14.77765 4.21679,-22.21217 0.19378,-3.8416 -0.15064,-7.69148 -0.22596,-11.537226 C 103.94563,86.54475 101.10036,73.582529 92.090538,64.015691 87.622141,59.271042 85.745327,58.85598 80.198295,55.962888 74.580461,54.645017 72.969939,53.735975 67.147362,54.462484 c -4.506859,0.562342 -8.87133,2.22019 -12.753329,4.538162 -14.286058,8.530312 -10.853891,5.447585 -18.106943,14.116653 -1.063847,2.070957 -2.322388,4.052962 -3.191539,6.212872 -2.576523,6.402853 -3.403608,13.54374 -1.687398,20.29144 1.328179,5.222059 2.790497,6.723639 5.625811,11.103119 3.494365,3.94816 7.603511,6.77311 12.78895,7.94157 1.355625,0.30546 2.760276,0.32401 4.140415,0.48602 0,0 8.553582,-6.09638 8.553582,-6.09638 v 0 c -1.363282,-0.0884 -2.743491,-0.0334 -4.089842,-0.2651 -5.093036,-0.87646 -9.149546,-3.43616 -12.646636,-7.18382 -2.831314,-4.23761 -4.209291,-5.54284 -5.508757,-10.649537 -1.672559,-6.572882 -0.77592,-13.525698 1.887423,-19.699739 0.910162,-2.109899 2.222119,-4.022744 3.333179,-6.034114 1.459979,-1.647942 3.78987,-2.822721 4.379936,-4.943819 0.303988,-1.092737 -4.161197,1.646597 -3.26816,0.947335 1.768658,-1.38489 3.900681,-2.264735 5.993384,-3.081231 4.182616,-1.6319 8.389615,-2.376205 12.877985,-2.004632 2.170499,0.179687 4.269621,0.862404 6.40443,1.293606 5.560748,2.674713 7.354311,2.97714 11.878204,7.545515 6.358385,6.420905 9.970842,14.883812 11.854299,23.600531 0.762715,3.529878 1.037408,7.147788 1.55611,10.721685 0.05443,3.80818 0.385556,7.62246 0.163272,11.42453 -0.428429,7.32804 -1.981896,15.14003 -4.485944,22.04982 -10.694276,29.5103 2.196213,-8.49424 -10.075439,17.37654 -0.264883,0.55842 1.004742,0.72004 1.507111,1.08005 -2.391315,1.22602 -4.624279,2.82912 -7.173947,3.67807 -9.888884,3.29264 -19.116457,-0.51894 -26.437306,-7.19437 -1.731206,-1.57858 -3.172434,-3.44842 -4.758653,-5.17263 -1.375238,-1.73573 -2.755934,-3.46715 -4.125711,-5.20719 -1.636081,-2.07832 -4.539388,-6.09825 -6.713829,-7.92475 -0.843153,-0.70824 -1.794261,-1.9772 -2.85119,-1.66832 -10.401959,3.03998 -9.748788,2.94438 -13.109304,8.36403 -0.296922,1.2099 -0.721454,2.39545 -0.890765,3.6297 -0.446879,3.25768 -0.347202,7.72298 1.845741,10.45224 0.565281,0.70352 1.330855,1.82265 2.199702,1.57852 4.161697,-1.16935 7.830631,-3.66464 11.745948,-5.49697 0.888392,-0.72833 1.888734,-1.33832 2.665172,-2.18499 2.219603,-2.42038 4.852821,-6.88485 6.313784,-9.58866 4.313295,-7.98266 7.742089,-16.41468 11.203172,-24.78622 1.131441,-3.01388 2.331553,-6.00287 3.394316,-9.04164 3.278807,-9.375164 5.723088,-19.01313 7.682436,-28.742261 0,0 -9.943383,4.889944 -9.943383,4.889944 z" />
    <path
       style="fill:url(#linearGradient45);fill-opacity:1;fill-rule:nonzero;stroke:none;stroke-width:0.264583"
       id="path18"
       d="m 139.19555,113.54454 c 11.56576,-4.89315 17.09596,-10.26943 24.46398,-19.436234 3.75801,-4.886648 7.36768,-10.108404 8.70973,-16.234156 0.72369,-3.303288 0.53604,-4.357574 0.50081,-7.634602 -0.63854,-5.128564 -3.05984,-9.833502 -7.80035,-12.279043 -0.88915,-0.458697 -1.85794,-0.742992 -2.78692,-1.114488 -5.02459,-1.284351 -10.36597,-1.437108 -15.38903,-0.01699 -0.92334,0.261051 -1.80972,0.638564 -2.71458,0.957844 -0.85565,0.428845 -1.7428,0.799899 -2.56696,1.286534 -3.92936,2.320131 -7.87146,4.625956 -11.68651,7.129587 -0.93133,0.611182 -1.70354,1.437052 -2.52084,2.19398 -2.73325,2.53138 -5.18306,5.344864 -7.6774,8.105143 -3.42993,3.721417 -6.50654,7.732855 -8.87899,12.21419 -1.38018,2.607014 -1.74286,3.661675 -2.86145,6.365415 -2.29775,5.51417 -3.53089,11.33794 -4.21534,17.24698 -0.47842,5.01188 0.13379,9.99971 0.99492,14.93046 0.80405,3.85411 1.89298,7.63623 3.69428,11.1423 2.28562,4.04819 5.1941,7.67711 8.23592,11.17284 2.71887,3.14853 5.86544,5.68992 9.61453,7.47569 4.03668,1.48547 7.56396,1.17461 11.60165,-0.0339 7.22767,-3.1434 14.50712,-6.82545 20.26074,-12.2867 3.07259,-3.30972 4.0261,-6.30753 4.64071,-10.66095 0.17363,-2.1539 0.14503,-1.11138 0.10735,-3.12689 0,0 -9.84335,5.03664 -9.84335,5.03664 v 0 c 0.0287,1.86945 0.0608,0.89096 -0.12558,2.93438 -0.64516,4.18343 -1.82315,6.94008 -4.90946,9.95666 -1.37699,1.19812 -1.52236,1.38745 -3.01907,2.43818 -0.58224,0.40874 -2.40489,1.51743 -1.7802,1.17709 14.77839,-8.05159 6.62956,-3.72946 3.28537,-2.15578 -3.82603,1.36938 -7.08886,1.85613 -11.05919,0.65032 -3.88573,-1.70821 -6.64748,-3.81212 -9.4611,-7.0263 -2.9993,-3.41012 -5.87518,-6.94852 -8.05282,-10.95588 -1.65806,-3.4416 -2.76813,-7.11364 -3.58504,-10.84279 -0.84442,-4.82667 -1.4406,-9.6971 -0.93806,-14.60354 0.72207,-5.79758 1.96899,-11.509946 4.22779,-16.923455 1.12634,-2.649615 1.48596,-3.6731 2.8773,-6.219928 2.40509,-4.402474 5.53731,-8.312336 8.92641,-11.99265 2.52068,-2.755387 5.01408,-5.543674 7.82373,-8.014319 0.84267,-0.741003 3.66377,-2.502485 2.60405,-2.133447 -2.37771,0.828022 -4.43012,2.394551 -6.66782,3.548621 -0.84389,0.435232 1.657,-0.927751 2.48549,-1.391626 0.88116,-0.360828 1.73903,-0.784815 2.64348,-1.082485 4.84105,-1.593283 10.06952,-1.593477 15.00517,-0.497342 0.87877,0.32041 1.79089,0.561038 2.63632,0.961231 4.52869,2.143686 6.846,6.438567 7.41804,11.265411 0.0325,3.179717 0.22356,4.077173 -0.53128,7.283748 -1.40755,5.979319 -5.02694,11.059181 -8.74884,15.811511 -2.91879,3.50283 -5.82856,6.93978 -9.35511,9.8615 -0.90025,0.74585 -3.88359,2.56757 -2.81656,2.08988 2.11862,-0.94847 10.76461,-5.92775 6.03978,-3.46617 0,0 -8.8057,6.89354 -8.8057,6.89354 z" />
    <path
       style="fill:url(#linearGradient53);fill-opacity:1;fill-rule:nonzero;stroke:none;stroke-width:0.264583"
       id="path20"
       d="m 31.979944,190.11122 c 0.335835,-0.25626 0.667054,-0.51869 1.007509,-0.76879 1.144273,-0.84056 4.775803,-3.06746 3.5383,-2.37141 -14.680471,8.2573 -4.571331,2.71496 -1.476132,1.08667 5.801243,-3.04387 12.036684,-5.10178 18.262528,-7.07459 7.594198,-2.55197 15.398046,-4.33722 23.238267,-5.93352 8.491543,-1.80784 17.084884,-2.98877 25.716124,-3.86566 8.9481,-0.80084 17.90015,-1.34426 26.79136,-2.66935 7.70896,-1.18433 15.30487,-2.93125 22.70385,-5.39211 6.8829,-2.24672 12.02807,-5.39258 18.32148,-9.50497 0.281,-0.18361 0.34265,-0.57732 0.51397,-0.86598 0.0387,-0.30786 0.15049,-0.61524 0.11594,-0.92359 -0.38143,-3.40479 -6.29721,-1.97306 -8.18147,-1.67555 -13.2037,3.03273 -24.62967,10.71619 -36.15495,17.46098 -10.49537,6.24755 -19.8907,14.05849 -29.451112,21.60127 -10.110571,7.81899 -20.546782,15.22497 -31.21791,22.25872 -3.70791,2.33152 -7.34401,4.78197 -11.069341,7.08597 -0.882533,0.54582 -3.564159,2.12715 -2.678395,1.58659 7.3773,-4.50221 9.631788,-5.04875 5.121529,-3.63152 -2.124088,0.26177 -5.05672,-0.64545 -4.641948,-3.34822 0.07313,-0.47655 0.302778,-0.91548 0.454168,-1.37322 0.244726,-0.47773 0.489452,-0.95546 0.734179,-1.43319 0,0 -10.005219,4.5696 -10.005219,4.5696 v 0 c -0.220586,0.54198 -0.441171,1.08397 -0.66176,1.62595 -0.104052,0.57894 -0.302538,1.14868 -0.312155,1.73682 -0.03775,2.30778 1.69763,4.13126 3.865956,4.68034 0.617485,0.15637 1.267172,0.13127 1.900759,0.19691 6.272239,-1.46765 1.833706,-0.22885 13.546693,-6.88558 4.568934,-2.59661 8.781264,-5.80027 13.264983,-8.53342 10.554753,-7.06948 20.919244,-14.44167 30.948603,-22.24025 9.62462,-7.58235 19.169,-15.32356 29.74341,-21.57764 -1.34523,0.74293 -5.33236,3.05353 -4.03568,2.22879 1.53852,-0.97858 3.15803,-1.8246 4.76239,-2.69102 5.47772,-2.9582 11.20041,-5.51266 17.30378,-6.86627 0.94328,-0.1619 5.63725,-1.28135 6.60935,-0.31317 0.24389,0.24292 -0.1411,0.73933 -0.20962,0.87215 -2.89359,2.88745 -0.61798,0.51472 7.93166,-4.22782 0.45306,-0.25132 -0.86572,0.5722 -1.32288,0.81601 -2.15864,1.15126 -4.51806,1.85262 -6.76178,2.80634 -7.40161,2.61968 -15.02319,4.4763 -22.7841,5.68949 -8.87083,1.41756 -17.81964,1.95171 -26.76306,2.72302 -8.65513,0.78362 -17.257218,1.98735 -25.76748,3.77204 -7.807642,1.52731 -15.591253,3.21856 -23.15234,5.72952 -6.246265,1.90037 -12.492093,3.93824 -18.333966,6.88972 -5.80671,2.97109 -11.338401,6.21762 -16.989159,9.55403 -0.955488,0.56415 -2.776134,1.84049 -3.669995,2.58296 -0.380545,0.31609 -0.717438,0.68131 -1.076157,1.02197 0,0 10.319821,-4.40902 10.319821,-4.40902 z" />
    <text
       xml:space="preserve"
       style="font-style:normal;font-weight:normal;font-size:11.9944px;line-height:0;font-family:sans-serif;white-space:pre;inline-size:174.912;fill:#000000;fill-opacity:1;stroke:none;stroke-width:0.264583"
       x="21.166666"
       y="240.39285"
       id="text24"><tspan
         x="21.166666"
         y="240.39285"><tspan
           style="font-style:normal;font-variant:normal;font-weight:normal;font-stretch:normal;font-size:11.9944px;line-height:1.35;font-family:'Times New Roman';-inkscape-font-specification:'Times New Roman, ';stroke-width:0.264583">DOUGLAS CORONADO ORTIZ</tspan></tspan></text>
  </g>
</svg>
